<svg width="600" height="800" xmlns="http://www.w3.org/2000/svg" xmlns:xlink="http://www.w3.org/1999/xlink" version="1.1">
 <defs>
  <path d="m33.469,15l0,11.938l3.125,0l0,-11.938l-3.125,0zm-13.813,3.406l-2.656,1.656l6.312,10.126l2.657,-1.657l-6.313,-10.125zm30.938,0.313l-4.719,8.531c-2.986,0.663 -5.776,1.865 -8.25,3.5c-0.847,-0.119 -1.715,-0.188 -2.594,-0.188c-10.675,0 -19.312,8.695 -19.312,19.407c0,1.947 0.305,3.825 0.843,5.593c-0.978,1.235 -1.775,2.642 -2.312,4.157l-0.688,-1.063l-10.062,6.344l0.3438,0.562c-2.3766,2.331 -3.8438,5.561 -3.8438,9.126c0,3.52 1.6295,6.439 4.0938,8.093c2.4642,1.654 5.5401,2.219 8.7182,2.219l20.469,0l3.125,0l9.125,0l17.844,0l16.375,0c11.15,0 20.25,-9.098 20.25,-20.25s-9.099,-20.219 -20.25,-20.219c-1.607,0 -3.124,0.264 -4.594,0.625c-2.866,-10.607 -12.411,-18.5 -23.906,-18.5c-0.499,0 -0.977,0.034 -1.469,0.063l3.563,-6.469l-2.75,-1.531zm-44.532,11.375l-1.5313,2.75l10.407,5.781l1.5,-2.75l-10.376,-5.781l0.0003,0zm45.188,1.344c10.088,0 18.319,7.377 19.844,17.031l0.468,2.906l2.75,-1.031c1.734,-0.658 3.538,-1.063 5.438,-1.063c8.58,0 15.5,6.89 15.5,15.469s-6.921,15.5 -15.5,15.5l-16.375,0l-17.844,0l-32.719,0c-2.576,0 -4.757,-0.53 -6.062,-1.406s-2,-1.922 -2,-4.156c0,-4.463 3.5946,-8.032 8.062,-8.032c0.74,0 1.486,0.128 2.313,0.375l3.063,0.938l0,-3.219c0,-0.288 0.007,-0.458 0,-0.5c0.133,-5.302 4.412,-9.5 9.75,-9.5c-0.078,0 0.118,0.026 0.656,0.062l2.656,0.188l-0.125,-2.656c-0.029,-0.651 -0.063,-0.871 -0.063,-0.719c0,-11.178 9.002,-20.187 20.188,-20.187zm-51.25,16.062l0,3.125l11.906,0l0,-3.125l-11.906,0z" id="bkn"/>
  <path d="m40.969,0.00106c-1.0006,0.01515 -2.0151,0.19516 -3.0312,0.56249c-0.43506,0.15727 -1.228,0.5569 -1.4062,0.68749c-0.06475,0.04744 -0.04471,0.09486 0.40625,0.90624l0.5,0.87499l0.375,-0.21875c1.0499,-0.55498 2.0713,-0.78254 3.3125,-0.78124c1.8787,0.00185 3.6166,0.6879 4.9375,2c0.9352,0.92897 1.6147,2.102 1.9062,3.3125c0.41842,1.7371 0.19508,3.5043 -0.625,5.0624c-1.0854,2.0622 -3.1458,3.4496 -5.5,3.7187c-0.22746,0.02601 -7.1115,0.03102 -21.094,0.03125l-20.75,0l0,2l21.062,0l21.062,-0.03125l0.46875,-0.09375c1.9627,-0.36965 3.611,-1.2099 4.9375,-2.5312c1.5461,-1.54 2.4586,-3.5881 2.625,-5.8437c0.11542,-1.5649 -0.24926,-3.3615 -1,-4.7812c-1.111,-2.099 -2.963,-3.6868 -5.157,-4.4063c-1.026,-0.3364 -2.031,-0.4839 -3.031,-0.46874l0.0017,0.00007zm23.781,0.125c-1.782,0.18419 -3.361,0.71027 -4.844,1.5624c-2.428,1.3953 -4.342,3.6561 -5.281,6.2812c-0.07242,0.20257 -0.10195,0.3667 -0.09375,0.375c0.0083,0.00827 0.40346,0.16682 0.90625,0.34375c0.70479,0.248 0.94506,0.28735 0.96875,0.25c0.0169,-0.02665 0.05993,-0.11557 0.09375,-0.21875c0.08655,-0.26389 0.33268,-0.85474 0.5,-1.1875c1.1642,-2.3151 3.217,-4.1125 5.6875,-4.9374c1.0388,-0.34686 2.0544,-0.50129 3.125,-0.49999c1.6064,0.00177 2.9752,0.32514 4.4062,1.0312c1.4656,0.72313 2.6236,1.6894 3.5625,2.9687c0.81055,1.1044 1.3278,2.2157 1.6562,3.5312c1.1791,4.7224 -1.3093,9.6519 -5.8438,11.531c-1.331,0.55162 -2.9948,0.8216 -4.4062,0.71874c-0.35108,-0.02559 -11.234,-0.06227 -32.844,-0.0625l-32.344,0l0,2.0312l32.625,0.03125c17.948,0.0052 32.867,-0.0051 33.156,0c2.8002,0.0493 5.8234,-1.0739 7.9375,-2.9687c1.1943,-1.0704 2.0605,-2.2173 2.75,-3.5937c2.022,-4.035 1.598,-8.8132 -1.093,-12.437c-1.884,-2.537 -4.614,-4.1574 -7.813,-4.6562c-0.625,-0.09759 -2.192,-0.15786 -2.812,-0.09374l0.0001,-0.00016zm-64.75,25.781l0,2l12.719,0c8.6705,0 12.845,0.0043 13.094,0.03125c2.1221,0.23064 4.0485,1.4088 5.1875,3.1562c0.46371,0.71139 0.85868,1.6855 1.0312,2.5312c0.31197,1.5289 0.09489,3.1277 -0.625,4.5625c-0.75782,1.5104 -2.0875,2.7443 -3.6562,3.375c-1.9089,0.76738 -3.985,0.66985 -5.8438,-0.25c-0.2748,-0.13599 -0.4916,-0.22705 -0.5,-0.21875c-0.0083,0.0083 -0.24197,0.38048 -0.5,0.84374c-0.42821,0.76868 -0.46506,0.86205 -0.40625,0.90624c0.11508,0.08644 0.84816,0.43906 1.1562,0.56249c0.80416,0.32216 1.7522,0.54006 2.625,0.62499c0.46505,0.04525 1.6095,0.0076 2.0625,-0.0625c1.598,-0.24716 2.966,-0.78627 4.2188,-1.7187c0.48023,-0.35744 1.4115,-1.3187 1.7812,-1.8125c2.2148,-2.9576 2.4239,-6.9016 0.53125,-10.094c-0.70833,-1.1946 -1.5739,-2.1151 -2.7188,-2.875c-1.1243,-0.74629 -2.1973,-1.1611 -3.6562,-1.4375c-0.41249,-0.07812 -0.39749,-0.08181 -13.438,-0.09375l-13.062,-0.029l-0.0004,-0.00191zm68.438,2.4687l-3.0312,1.9687l0,9.4686l-5.2812,-3l-2.6875,1.5625l0,3.3125l7.8438,4.4687l0,6.2187l-5.8438,-3.125l0.03125,6.4374l-5.5625,-3.1875l0.03125,-9.0937l-3.0625,-1.7812l-2.5,1.6875l0,6.0937l-8.25,-4.7812l-3.2188,1.6562l0,3.7812l8.375,4.5625l-5.25,2.9375l0,3.4375l2.9062,1.4687l7.7812,-4.5625l5.375,3.0937l-5.375,3.3437l5.5312,3.1562l0.125,0.09375l-5.4062,3.125l-7.75,-4.5937l-3.0938,1.6875l0,3.4687l5.4375,2.7187l-8.6562,4.7187l0,3.7812l3.5,1.5l8.25,-4.6562l0,5.9687l2.5312,1.6562l2.9688,-1.8437l0,-8.9062l5.4375,-3.1562l0,6.5937l5.6875,-3.6562l0,6.2187l-7.8438,4.4687l0,3.3125l2.6875,1.5625l5.2812,-2.9687l0,9.4374l3.033,1.968l3.062,-1.969l0,-9.4374l5.25,2.9687l2.6875,-1.375l0,-3.5l-7.8438,-4.4687l0,-6.2187l5.5625,3.375l0,-6.1874l5.7812,3.2812l0,8.9687l2.7812,1.5625l2.8125,-1.5625l0,-5.9062l7.8125,4.4687l3.375,-1.5625l0,-3.7187l-7.9688,-4.7187l5,-2.8125l0,-3.2187l-2.5625,-1.8125l-7.9688,4.4687l-5.6875,-3l5.5,-3.1562l-5.3438,-3.3125l5.5312,-3.5l7.9688,4.7187l2.6875,-1.5l0,-3.375l-5.1875,-2.9062l8.3125,-4.7187l0,-3.5312l-2.9688,-1.8125l-8.5,4.5937l0,-6.2187l-2.9062,-1.2812l-2.75,1.2812l0,9.7186l-5.7188,3.125l0,-6.7499l-5.5312,3.375l0,-6.2187l8.0938,-4.5937l0,-2.9687l-2.75,-1.8437l-5.4688,3.0625l0,-9.4686l-3.0625,-1.9687l-0.0008,0.00105zm-2.5,31.562l5.2812,0l2.5625,4.4687l-2.4375,4.1562l-5.2812,0l-2.8125,-4.1562l2.6875,-4.4687z" id="blizzard"/>
  <path d="m50,3.7812c-2.236,0.0561 -4.242,0.829 -5.812,2.125c-1.961,1.617 -3.219,4.0237 -3.219,6.8438l0,55.812c-3.922,2.948 -6.232,7.407 -6.25,12.282c-0.016,6.461 3.926,11.869 9.469,14.156c1.794,0.741 3.729,1.176 5.781,1.188c1.847,0.01 3.627,-0.31 5.25,-0.907c5.859,-2.136 9.957,-7.823 10.062,-14.156c0.08,-4.963 -2.228,-9.545 -6.25,-12.563l0,-56.218c0,-2.9794 -1.517,-5.4549 -3.812,-6.969c-1.479,-0.978 -3.296,-1.5446 -5.219,-1.5938zm0,4c1.071,0.0273 2.082,0.3302 2.906,0.875c1.279,0.8435 2.125,2.2468 2.125,3.9058l0,18.75l0,30.563l0,8.937c3.707,1.85 6.25,5.67 6.25,10.094c0,6.231 -5.05,11.282 -11.281,11.282s-11.281,-5.051 -11.281,-11.282c0,-4.424 2.543,-8.244 6.25,-10.094l0,-8.937l0,-30.344l0,-18.75c0,-1.571 0.689,-2.9114 1.781,-3.8122c0.875,-0.7221 2.004,-1.1564 3.25,-1.1876zm-3.031,54.094l0,10.25c-3.636,1.258 -6.25,4.718 -6.25,8.781c0,5.127 4.155,9.282 9.281,9.282c5.127,0 9.281,-4.155 9.281,-9.282c0,-4.063 -2.614,-7.523 -6.25,-8.781l0,-10.25l-6.062,0z" id="cold"/>
  <path d="m51.312,0c-5.182,0 -9.974,1.68 -13.874,4.5l27.687,0c-3.879,-2.82 -8.641,-4.5 -13.813,-4.5zm-18.312,8.625c-1.135,1.375 -2.102,2.891 -2.906,4.5l42.312,0c-0.806,-1.614 -1.771,-3.121 -2.906,-4.5l-36.5,0zm-4.5,8.625c-0.41,1.451 -0.686,2.95 -0.812,4.5l63.718,0c-2.932,-1.897 -6.403,-3 -10.156,-3c-2.34,0 -4.568,0.47 -6.625,1.25c-0.15,-0.948 -0.368,-1.843 -0.625,-2.75l-45.5,0zm-7.438,8.625c-2.04,1.037 -3.774,2.58 -5,4.5l82.532,0c-0.668,-1.626 -1.551,-3.141 -2.625,-4.5l-74.907,0zm-6.718,8.625c-0.192,0.879 -0.282,1.814 -0.282,2.75c0,0.087 0.032,0.163 0.032,0.25c-1.008,-0.302 -2.054,-0.531 -3.156,-0.531c-2.3638,0 -4.5566,0.758 -6.3442,2.031l95.344,0c0.038,-0.499 0.062,-0.991 0.062,-1.5c0,-1.025 -0.092,-2.02 -0.25,-3l-85.406,0l0.0002,0zm-13.25,8.625c-0.66562,1.366 -1.0531,2.889 -1.0938,4.5l97.031,0c0.893,-1.385 1.589,-2.896 2.094,-4.5l-98.031,0l-0.0002,0zm-0.25005,8.625c1.6598,3.194 5.5612,4.5 10.094,4.5l70.312,0c4.652,0 8.91,-1.698 12.188,-4.5l-92.594,0zm38.468,10.75c-0.759,-0.008 -1.556,0.309 -2.25,0.938c-1.335,1.169 -1.566,2.837 -1.562,4.343c0,0.72 0.028,1.412 0.062,2.094c-0.312,-0.273 -0.654,-0.545 -1.093,-0.813c-0.923,-0.583 -1.719,-0.901 -2.5,-0.906c-1.983,0.081 -2.569,1.987 -2.625,4.063c-2.107,1.723 -2.485,8.9 1.25,7.656c2.024,-0.679 2.888,-3.279 2.687,-5.063c0,0 -0.133,-2.52 -2.406,-2.906c0.113,-1.699 0.571,-2.25 1.094,-2.25c0.322,-0.007 0.906,0.152 1.687,0.656c1.414,0.98 1.839,1.344 2,2.25c0.022,0.858 0.123,2.878 0.125,2.969c0.215,3.013 0.671,5.308 1,8.344l-15.375,0l2.406,1.125l10.188,3.406l9.406,-1.625l6.594,2.313l5.219,-1.625l1.562,-3.594l-17.75,0c-0.332,-3.103 -1.537,-5.565 -1.75,-8.563c0.025,-1.026 0.014,-1.776 -0.125,-2.75c-0.014,-0.558 -0.062,-1.052 -0.062,-1.624c0,-1.092 -0.094,-2.176 -0.094,-3.157c0.005,-1.388 0.215,-2.473 1.062,-3.219c0.506,-0.442 0.912,-0.556 1.25,-0.562c0.889,-0.094 2.063,1.286 2.657,2.844c-0.523,0.425 -0.813,0.812 -0.813,0.812c-2.021,2.831 5.595,10.919 8.625,6.563c1.297,-1.864 -0.371,-7.221 -3.437,-8.281c-1.201,-0.418 -2.252,-0.24 -3.094,0.124c-0.718,-1.754 -1.95,-3.466 -3.938,-3.562zm4.282,4.281s3.683,2.507 4.718,6.969l-5.781,-6.312l1.063,-0.657zm-13.032,6.063l-1.031,5.781c-0.517,-1.831 0,-5.344 0,-5.344l1.031,-0.437zm-30.562,11.031l0,6.375l5.2188,-2.781l1.5624,-3.594l-6.7812,0zm8.6875,0l-2.0937,4.187l4.7812,6l4.594,-2.75l4.781,-5.937l-1.469,-1.5l-10.594,0l0.0005,0zm50,0l-2.094,4.187l4.781,6l4.594,-2.75l4.781,-5.937l-1.469,-1.5l-10.593,0zm12.718,0l2.406,1.125l10.188,3.406l7.938,-1.125l8.062,-2.562l0,-0.844l-28.594,0zm-48.718,2.281l-4.563,5.656l12.5,6.782l7.625,-1.469l-5.375,-7.594l-10.187,-3.375zm50,0l-4.563,5.656l12.5,6.782l7.625,-1.469l-5.375,-7.594l-10.187,-3.375zm27.312,0l-5.281,1.406l5.281,1.532l0,-2.938zm-56.781,2.594l-7.688,1.031l5.031,7.313l13.344,2.906l5.813,-4.75l-4.375,-5.75l-5.344,1.438l-6.781,-2.188zm50,0l-7.688,1.031l5.031,7.313l9.438,2.218l0,-8.374l-6.781,-2.188zm-87.875,0.75l-5.3438,2.562l0,7.938l3.9062,0l5.8126,-4.781l-4.375,-5.719zm11.406,3.625l-8.1562,5.531l1.0937,1.344l18.718,0l-0.062,-0.281l-11.594,-6.594l0.0005,0zm50,0l-8.156,5.531l1.094,1.344l18.718,0l-0.062,-0.281l-11.594,-6.594zm-27.062,5.469l-6.376,1.406l12.219,0l-5.843,-1.406zm50,0l-6.376,1.406l12.219,0l-5.843,-1.406z" id="du"/>
  <path d="m43.031,0l0,15.344l4,0l0,-15.344l-4,0zm-17.75,4.375l-3.406,2.1562l8.125,13l3.406,-2.125l-8.125,-13.031l0,-0.0002zm39.781,0.4062l-7.437,13.407l3.531,1.968l7.406,-13.406l-3.5,-1.9688l0,-0.0002zm-57.281,14.625l-1.9687,3.532l13.376,7.437l1.968,-3.531l-13.375,-7.438l-0.0003,0zm37.281,0.594c-13.724,0 -24.874,11.166 -24.874,24.938c0,13.77 11.15,24.94 24.874,24.937c13.716,0 24.813,-11.165 24.813,-24.937s-11.099,-24.938 -24.813,-24.938zm37.563,0.5l-13.25,7.656l2.031,3.5l13.25,-7.656l-2.031,-3.5zm-82.625,21.281l0,4.031l15.312,0l0,-4.031l-15.312,0zm74.688,0.25l0,4.031l15.312,0l0,-4.031l-15.312,0zm-57.219,14.094l-12.969,8.156l2.0938,3.407l13,-8.126l-2.125,-3.437l0.0002,0zm54.437,0.875l-1.968,3.531l13.406,7.438l1.937,-3.531l-13.375,-7.438zm-10.187,12.25l-3.469,2l7.656,13.312l3.469,-2l-7.656,-13.312zm-33.438,0.094l-7.406,13.437l3.5,1.969l7.437,-13.438l-3.531,-1.968zm14.5,5.312l0,15.344l4.031,0l0,-15.344l-4.031,0zm37.719,2c-5.303,0 -9.565,4.213 -9.875,9.438c-2.591,0.249 -4.6,2.193 -5.063,4.718c-0.152,-0.016 -0.276,-0.062 -0.437,-0.062c-2.817,0 -5.125,2.31 -5.125,5.125c0,1.408 0.671,2.588 1.656,3.25c0.986,0.662 2.198,0.875 3.469,0.875l13.094,0l7.125,0l6.562,0c4.46,0 8.094,-3.633 8.094,-8.094s-3.633,-8.094 -8.094,-8.094c-0.677,0 -1.29,0.185 -1.906,0.344c-1.127,-4.272 -4.881,-7.5 -9.5,-7.5zm0,1.906c4.035,0 7.328,2.983 7.938,6.844l0.187,1.156l1.094,-0.437c0.693,-0.263 1.427,-0.406 2.187,-0.406c3.432,0 6.188,2.756 6.188,6.187c0,3.432 -2.756,6.188 -6.188,6.188l-6.562,0l-7.125,0l-13.094,0c-1.031,0 -1.884,-0.212 -2.406,-0.563c-0.522,-0.35 -0.813,-0.762 -0.813,-1.656c0,-1.785 1.432,-3.219 3.219,-3.219c0.296,0 0.576,0.057 0.906,0.156l1.25,0.376l0,-1.282c0,-0.059 -0.028,-0.061 -0.031,-0.094c0,-0.054 -0.005,-0.05 0,-0.062c-0.001,-0.005 0.001,-0.029 0,-0.031c0.05,-2.124 1.77,-3.813 3.906,-3.813c-0.031,0 0.066,0.017 0.282,0.032l1.062,0.062l-0.031,-1.062c-0.012,-0.261 -0.063,-0.343 -0.063,-0.282c0,-4.471 3.62,-8.094 8.094,-8.094z" id="few"/>
  <path d="m51.312,21.875c-5.183,0 -9.974,1.68 -13.874,4.5l27.687,0c-3.879,-2.82 -8.642,-4.5 -13.813,-4.5zm-18.312,8.625c-1.135,1.375 -2.102,2.891 -2.906,4.5l42.312,0c-0.806,-1.614 -1.771,-3.121 -2.906,-4.5l-36.5,0zm-4.5,8.625c-0.41,1.451 -0.686,2.95 -0.812,4.5l63.718,0c-2.932,-1.897 -6.403,-3 -10.156,-3c-2.34,0 -4.568,0.47 -6.625,1.25c-0.15,-0.948 -0.368,-1.843 -0.625,-2.75l-45.5,0zm-7.438,8.625c-2.041,1.037 -3.774,2.58 -5,4.5l82.532,0c-0.668,-1.626 -1.551,-3.141 -2.625,-4.5l-74.907,0zm-6.718,8.625c-0.192,0.879 -0.282,1.814 -0.282,2.75c0,0.087 0.032,0.163 0.032,0.25c-1.008,-0.302 -2.054,-0.531 -3.156,-0.531c-2.3633,0 -4.5566,0.758 -6.3442,2.031l95.344,0c0.039,-0.499 0.062,-0.991 0.062,-1.5c0,-1.025 -0.092,-2.02 -0.25,-3l-85.406,0l0.0002,0zm-13.25,8.625c-0.66557,1.366 -1.0531,2.889 -1.0938,4.5l97.031,0c0.893,-1.385 1.589,-2.896 2.094,-4.5l-98.031,0l-0.0002,0zm-0.25005,8.625c1.6598,3.194 5.5614,4.5 10.094,4.5l70.312,0c4.652,0 8.91,-1.698 12.188,-4.5l-92.594,0z" id="fg"/>
  <path d="m51.312,0c-5.182,0 -9.974,1.68 -13.874,4.5l27.687,0c-3.879,-2.82 -8.641,-4.5 -13.813,-4.5zm-18.312,8.625c-1.135,1.375 -2.102,2.891 -2.906,4.5l42.312,0c-0.806,-1.614 -1.771,-3.121 -2.906,-4.5l-36.5,0zm-4.5,8.625c-0.41,1.451 -0.686,2.95 -0.812,4.5l63.718,0c-2.932,-1.897 -6.403,-3 -10.156,-3c-2.34,0 -4.568,0.47 -6.625,1.25c-0.15,-0.948 -0.368,-1.843 -0.625,-2.75l-45.5,0zm-7.438,8.625c-2.04,1.037 -3.774,2.58 -5,4.5l82.532,0c-0.668,-1.626 -1.551,-3.141 -2.625,-4.5l-74.907,0zm-6.718,8.625c-0.192,0.879 -0.282,1.814 -0.282,2.75c0,0.087 0.032,0.163 0.032,0.25c-1.008,-0.302 -2.054,-0.531 -3.156,-0.531c-2.3638,0 -4.5566,0.758 -6.3442,2.031l95.344,0c0.038,-0.499 0.062,-0.991 0.062,-1.5c0,-1.025 -0.092,-2.02 -0.25,-3l-85.406,0l0.0002,0zm-13.25,8.625c-0.66562,1.366 -1.0531,2.889 -1.0938,4.5l97.031,0c0.893,-1.385 1.589,-2.896 2.094,-4.5l-98.031,0l-0.0002,0zm-0.25005,8.625c1.6598,3.194 5.5612,4.5 10.094,4.5l70.312,0c4.652,0 8.91,-1.698 12.188,-4.5l-92.594,0zm36.781,5.469c-1.524,1.269 -2.656,2.59 -2.656,3.969c0,0.735 0.502,1.755 1.312,2.624c0.926,1.072 1.199,2.288 1.344,2.657c0.959,-0.765 1.313,-1.671 1.313,-2.657c0,-0.735 -0.801,-1.727 -1.313,-2.624c-0.66,-1.214 0.153,-2.866 0,-3.969zm-6.625,2.625c-0.004,0.156 -3.809,6.267 -1.344,9.281c3.827,4.666 2.211,8.27 0,7.937c-3.714,-0.556 -3.241,-5.403 -2.625,-6.624c-1.941,-0.205 -4.201,1.01 -5.312,2.656c-3.342,4.963 3.887,9.72 1.312,13.25c-1.959,2.689 -5.292,-2.615 -5.281,-2.656c-3.976,20.752 24.882,21.272 26.469,3.968c0.472,-5.19 5.162,-8.004 5.312,-7.937c-4.976,-2.295 -7.937,1.478 -7.937,1.312c0,-0.65 2.782,-9.29 -2.656,-11.906c-6.267,-3.014 -7.99,-5.429 -7.938,-9.281zm-1.344,23.844c0.02,0.041 3.265,0.534 5.313,2.656c3.14,3.242 2.773,9.076 -2.657,9.281c-6.942,0.256 -6.212,-4.95 -5.281,-6.625c1.183,-2.133 4.153,-2.568 2.625,-5.312z" id="fu"/>
  <path d="m42.312,14.812c-10.476,0 -18.937,8.499 -18.937,18.969c0,0.237 0.052,0.451 0.063,0.688c-0.237,-0.016 -0.451,-0.063 -0.688,-0.063c-5.636,0 -10.219,4.583 -10.219,10.219c0,0.07 0.031,0.118 0.031,0.187c-0.806,-0.241 -1.648,-0.406 -2.531,-0.406c-4.8342,0 -8.7498,3.921 -8.7498,8.75c0,4.835 3.9156,6.656 8.7498,6.656l56.25,0c8.287,0 15,-6.713 15,-15s-6.713,-15 -15,-15c-1.872,0 -3.667,0.408 -5.312,1.032c-1.431,-9.057 -9.202,-16.032 -18.657,-16.032zm48.126,20.376c-1.21,0.03 -2.276,0.423 -3.126,1.124c-1.06,0.875 -1.75,2.193 -1.75,3.719l0,30.188c-2.122,1.594 -3.365,4.018 -3.374,6.656c-0.009,3.496 2.126,6.419 5.124,7.656c0.971,0.401 2.015,0.651 3.126,0.657c0.999,0.006 1.965,-0.177 2.843,-0.5c3.171,-1.156 5.381,-4.23 5.438,-7.657c0.043,-2.685 -1.199,-5.179 -3.375,-6.812l0,-30.407c0,-1.612 -0.821,-2.962 -2.063,-3.781c-0.799,-0.529 -1.772,-0.817 -2.812,-0.843l-0.031,0zm0,2.156c0.579,0.015 1.147,0.174 1.593,0.468c0.692,0.457 1.157,1.227 1.157,2.126l0,31.5c2.005,1 3.374,3.074 3.374,5.468c0,3.372 -2.753,6.094 -6.124,6.094c-3.372,0 -6.094,-2.722 -6.094,-6.094c0,-2.393 1.369,-4.468 3.375,-5.468l0,-31.407c0,-0.85 0.378,-1.575 0.969,-2.062c0.473,-0.391 1.076,-0.608 1.75,-0.625zm-70.376,27.437l-7.218,19.844l1.531,0.563l7.437,-20.407l-1.75,0zm8.25,0l-7.218,19.844l1.562,0.563l7.406,-20.407l-1.75,0zm8.282,0l-7.219,19.844l1.531,0.563l7.438,-20.407l-1.75,0zm8.25,0l-7.219,19.844l1.531,0.563l7.438,-20.407l-1.75,0zm8.25,0l-7.219,19.844l1.563,0.563l7.406,-20.407l-1.75,0zm8.281,0l-7.219,19.844l1.532,0.563l7.437,-20.407l-1.75,0zm27.437,1.844l0,5.531c-1.966,0.681 -3.374,2.552 -3.374,4.75c0,2.774 2.226,5.032 5,5.032s5.031,-2.258 5.031,-5.032c0,-2.198 -1.408,-4.069 -3.375,-4.75l0,-5.531l-3.282,0z" id="fzra"/>
  <path d="m73.078,1.875l0,8.5312l2.2188,0l0,-8.5312l-2.2188,0zm-9.875,2.4062l-1.875,1.2188l4.5,7.2188l1.9062,-1.1875l-4.5312,-7.25l0,-0.0001zm22.125,0.25l-4.125,7.4375l1.9375,1.0938l4.125,-7.4688l-1.9375,-1.0625zm-31.844,8.125l-1.0625,1.9375l7.4062,4.1562l1.0938,-1.9688l-7.4375,-4.125l0,0.0001zm20.719,0.3125c-7.625,0 -13.812,6.224 -13.812,13.875c0,7.65 6.1875,13.845 13.812,13.844c7.619,0 13.781,-6.1928 13.781,-13.844c0,-7.65 -6.1622,-13.875 -13.781,-13.875zm20.875,0.28125l-7.375,4.25l1.125,1.9688l7.375,-4.2812l-1.125,-1.9375l0,-0.0001zm-45.906,11.812l0,2.25l8.5,0l0,-2.25l-8.5,0zm41.5,0.15625l0,2.2188l8.5,0l0,-2.2188l-8.5,0zm-31.812,7.8125l-7.1875,4.5312l1.1562,1.9062l7.2188,-4.5312l-1.1875,-1.9062zm30.25,0.5l-1.0625,1.9688l7.4062,4.125l1.0938,-1.9688l-7.4375,-4.125zm-54.094,3.5625c-8.8406,0 -15.952,7.0403 -16.469,15.75c-4.3198,0.41518 -7.666,3.6658 -8.4375,7.875c-0.25345,-0.02661 -0.4506,-0.125 -0.71875,-0.125c-4.6961,0 -8.5625,3.8389 -8.5625,8.5312c0,2.3476 1.108,4.3341 2.75,5.4375c1.6436,1.1041 3.6939,1.4688 5.8125,1.4688l21.812,0l11.875,0l10.938,0c7.4348,0 13.5,-6.0639 13.5,-13.5s-6.0638,-13.5 -13.5,-13.5c-1.1286,0 -2.1604,0.29785 -3.1875,0.5625c-1.8785,-7.1211 -8.1131,-12.5 -15.812,-12.5l-0.00025,0zm0,3.1875c6.7262,0 12.201,4.9699 13.219,11.406l0.3125,1.9375l1.8438,-0.75c1.1552,-0.43828 2.3578,-0.65625 3.625,-0.65625c5.7208,0 10.344,4.5931 10.344,10.312c0,5.7208 -4.6229,10.312 -10.344,10.312l-10.938,0l-11.875,0l-21.812,0c-1.7188,0 -3.1608,-0.35219 -4.0312,-0.9375c-0.8702,-0.58322 -1.3438,-1.2907 -1.3438,-2.7812c0,-2.9749 2.3959,-5.3438 5.375,-5.3438c0.49359,0 0.94969,0.08547 1.5,0.25l2.0938,0.625l0,-2.125c0,-0.09802 -0.0576,-0.10094 -0.0625,-0.15625c0,-0.08962 -0.008,-0.1047 0,-0.125c-0.001,-0.0084 0.001,-0.02845 0,-0.03125c0.0833,-3.5413 2.9391,-6.375 6.5,-6.375c-0.0518,0 0.14013,0.0373 0.5,0.0625l1.75,0.09375l-0.0625,-1.75c-0.01274,-0.28261 -0.06568,-0.42474 -0.09375,-0.46875c0,-0.02538 -0.0087,-0.03558 0,-0.03125c0.01709,-7.4384 6.052,-13.469 13.5,-13.469l-0.00035,0.0015zm48.438,0.0625l-1.9062,1.125l4.25,7.375l1.9062,-1.125l-4.25,-7.375zm-18.562,0.0625l-4.125,7.4375l1.9688,1.0938l4.125,-7.4688l-1.9688,-1.0625zm8.0625,2.9375l0,8.5312l2.2188,0l0,-8.5312l-2.2188,0zm-57.344,36.938l-6.3438,17.344l1.375,0.5l6.5,-17.844l-1.5312,0zm12.031,0l-6.3125,17.344l1.3438,0.5l6.5,-17.844l-1.5312,0l-0.0001,0zm12.062,0l-6.3125,17.344l1.3438,0.5l6.5,-17.844l-1.5312,0l-0.0001,0zm12.031,0l-6.2812,17.344l1.3438,0.5l6.5,-17.844l-1.5625,0l-0.0001,0z" id="hi_shwrs"/>
  <path d="m50,3.7812c-2.2361,0.056 -4.2425,0.82896 -5.8125,2.125c-1.9601,1.617 -3.2188,4.0236 -3.2188,6.8438l0,55.812c-3.9221,2.9471 -6.232,7.4064 -6.25,12.281c-0.016,6.4612 3.9266,11.869 9.4688,14.156c1.794,0.74102 3.7292,1.1765 5.7812,1.1875c1.8471,0.011 3.627,-0.30923 5.25,-0.90625c5.8592,-2.1361 9.957,-7.8234 10.062,-14.156c0.08,-4.9631 -2.2279,-9.5449 -6.25,-12.562l0,-56.219c0,-2.9791 -1.5174,-5.4546 -3.8125,-6.9688c-1.478,-0.9772 -3.295,-1.5438 -5.218,-1.593l-0.0002,-0.00025zm0,4c1.0714,0.0273 2.0824,0.33013 2.9062,0.875c1.2786,0.84349 2.125,2.2466 2.125,3.9062l0,18.75l0,30.562l0,8.9375c3.7066,1.8491 6.25,5.6698 6.25,10.094c0,6.2312 -5.0504,11.281 -11.281,11.281c-6.2312,0 -11.281,-5.0504 -11.281,-11.281c0,-4.4238 2.5434,-8.2444 6.25,-10.094l0,-8.9375l0,-30.344l0,-18.75c0,-1.5711 0.68933,-2.9116 1.7812,-3.8125c0.87469,-0.72204 2.0043,-1.1563 3.25,-1.1875l-0.0004,0.0008zm-3.0312,10.094l0,54.25c-3.6353,1.2579 -6.25,4.7182 -6.25,8.7812c0,5.1266 4.1548,9.2812 9.2812,9.2812c5.1266,0 9.2812,-4.1548 9.2812,-9.2812c0,-4.0631 -2.6147,-7.5234 -6.25,-8.7812l0,-54.25l-6.0624,0z" id="hot"/>
  <path d="m51.312,4.6875c-13.094,0 -23.718,10.6 -23.718,23.688c0,0.296 0.08,0.579 0.094,0.875c-0.296,-0.02 -0.58,-0.094 -0.876,-0.094c-7.044,0 -12.75,5.705 -12.75,12.75c0,0.087 0.032,0.163 0.032,0.25c-1.008,-0.302 -2.054,-0.5 -3.156,-0.5c-6.0435,0 -10.938,4.901 -10.938,10.938c0,6.043 4.8945,8.344 10.938,8.344l70.312,0c10.358,0 18.75,-8.392 18.75,-18.75c0,-10.36 -8.391,-18.75 -18.75,-18.75c-2.34,0 -4.568,0.47 -6.625,1.25c-1.788,-11.322 -11.495,-20 -23.313,-20l0,-0.001zm-9.562,59.594c-0.973,0.049 -1.864,0.653 -2.219,1.625c-0.473,1.297 0.204,2.745 1.5,3.219c1.297,0.473 2.745,-0.203 3.219,-1.5s-0.203,-2.745 -1.5,-3.219c-0.324,-0.118 -0.676,-0.141 -1,-0.125zm34.438,0c-0.973,0.049 -1.864,0.653 -2.219,1.625c-0.474,1.297 0.203,2.745 1.5,3.219c1.296,0.473 2.714,-0.203 3.187,-1.5c0.474,-1.297 -0.172,-2.745 -1.468,-3.219c-0.325,-0.118 -0.676,-0.141 -1,-0.125zm-52.126,1c-0.778,0.039 -1.497,0.535 -1.781,1.313c-0.379,1.037 0.182,2.183 1.219,2.562s2.184,-0.181 2.562,-1.218c0.379,-1.038 -0.181,-2.184 -1.218,-2.563c-0.26,-0.095 -0.522,-0.107 -0.782,-0.094zm34.438,0c-0.778,0.039 -1.497,0.535 -1.781,1.313c-0.379,1.037 0.15,2.183 1.187,2.562c1.038,0.379 2.184,-0.181 2.563,-1.218c0.379,-1.038 -0.151,-2.184 -1.188,-2.563c-0.259,-0.095 -0.522,-0.107 -0.781,-0.094zm-19.125,5.5c-0.973,0.049 -1.864,0.684 -2.219,1.657c-0.473,1.296 0.204,2.713 1.5,3.187c1.297,0.473 2.714,-0.203 3.188,-1.5c0.473,-1.297 -0.172,-2.714 -1.469,-3.187c-0.324,-0.119 -0.676,-0.173 -1,-0.157zm34.437,0c-0.972,0.049 -1.863,0.684 -2.218,1.657c-0.474,1.296 0.203,2.713 1.5,3.187c1.296,0.473 2.714,-0.203 3.187,-1.5c0.474,-1.297 -0.203,-2.714 -1.5,-3.187c-0.324,-0.119 -0.644,-0.173 -0.969,-0.157zm-52.124,1c-0.779,0.039 -1.498,0.535 -1.782,1.313c-0.379,1.037 0.151,2.183 1.188,2.562s2.215,-0.15 2.594,-1.187c0.378,-1.038 -0.182,-2.184 -1.219,-2.563c-0.26,-0.094 -0.522,-0.138 -0.781,-0.125zm34.437,0c-0.778,0.039 -1.497,0.535 -1.781,1.313c-0.379,1.037 0.15,2.183 1.187,2.562c1.038,0.379 2.184,-0.15 2.563,-1.187c0.379,-1.038 -0.151,-2.184 -1.188,-2.563c-0.259,-0.094 -0.522,-0.138 -0.781,-0.125zm-19.125,5.5c-0.973,0.049 -1.864,0.684 -2.219,1.657c-0.473,1.296 0.204,2.745 1.5,3.218c1.297,0.474 2.714,-0.203 3.188,-1.5c0.473,-1.296 -0.172,-2.745 -1.469,-3.218c-0.324,-0.119 -0.676,-0.173 -1,-0.157zm34.438,0c-0.973,0.049 -1.864,0.684 -2.219,1.657c-0.474,1.296 0.172,2.745 1.469,3.218c1.296,0.474 2.745,-0.203 3.218,-1.5c0.474,-1.296 -0.203,-2.745 -1.5,-3.218c-0.324,-0.119 -0.644,-0.173 -0.968,-0.157zm-52.126,1c-0.778,0.039 -1.497,0.535 -1.781,1.313c-0.379,1.037 0.151,2.215 1.188,2.594c1.037,0.378 2.183,-0.182 2.562,-1.219c0.379,-1.038 -0.15,-2.184 -1.187,-2.563c-0.26,-0.094 -0.522,-0.138 -0.782,-0.125zm34.438,0c-0.778,0.039 -1.497,0.535 -1.781,1.313c-0.379,1.037 0.15,2.215 1.187,2.594c1.038,0.378 2.184,-0.182 2.563,-1.219c0.379,-1.038 -0.151,-2.184 -1.188,-2.563c-0.259,-0.094 -0.522,-0.138 -0.781,-0.125zm-19.125,5.531c-0.973,0.049 -1.864,0.653 -2.219,1.626c-0.473,1.296 0.204,2.745 1.5,3.218c1.297,0.474 2.714,-0.203 3.188,-1.5c0.473,-1.296 -0.204,-2.714 -1.5,-3.187c-0.324,-0.119 -0.645,-0.173 -0.969,-0.157zm34.437,0c-0.972,0.049 -1.863,0.653 -2.218,1.626c-0.474,1.296 0.172,2.745 1.468,3.218c1.297,0.474 2.746,-0.203 3.219,-1.5c0.474,-1.296 -0.203,-2.714 -1.5,-3.187c-0.324,-0.119 -0.644,-0.173 -0.969,-0.157zm-52.124,1c-0.779,0.039 -1.498,0.535 -1.782,1.313c-0.379,1.037 0.151,2.184 1.188,2.563c1.037,0.378 2.183,-0.151 2.562,-1.188s-0.15,-2.184 -1.187,-2.562c-0.26,-0.095 -0.522,-0.138 -0.781,-0.126zm34.437,0c-0.778,0.039 -1.497,0.535 -1.781,1.313c-0.379,1.037 0.15,2.184 1.187,2.563c1.038,0.378 2.184,-0.151 2.563,-1.188s-0.151,-2.184 -1.188,-2.562c-0.259,-0.095 -0.522,-0.138 -0.781,-0.126zm-24.844,2.219c-1.38,0 -2.5,1.12 -2.5,2.5c0,1.381 1.12,2.5 2.5,2.5c1.381,0 2.5,-1.119 2.5,-2.5c0,-1.38 -1.119,-2.5 -2.5,-2.5zm34.438,0c-1.381,0 -2.5,1.12 -2.5,2.5c0,1.381 1.119,2.5 2.5,2.5c1.38,0 2.5,-1.119 2.5,-2.5c0,-1.38 -1.12,-2.5 -2.5,-2.5zm-52.156,1c-1.1046,0 -2,0.896 -2,2c0,1.105 0.8954,2 2,2s1.9995,-0.895 1.9995,-2c0,-1.104 -0.8949,-2 -1.9995,-2zm34.438,0c-1.105,0 -2,0.896 -2,2c0,1.105 0.895,2 2,2s2,-0.895 2,-2c0,-1.104 -0.895,-2 -2,-2zm-11,2.281c-0.973,0.049 -1.864,0.684 -2.219,1.657c-0.473,1.296 0.172,2.714 1.469,3.187c1.297,0.474 2.745,-0.172 3.219,-1.468c0.473,-1.297 -0.204,-2.746 -1.5,-3.219c-0.324,-0.119 -0.645,-0.173 -0.969,-0.157zm34.438,0c-0.973,0.049 -1.864,0.684 -2.219,1.657c-0.474,1.296 0.172,2.714 1.469,3.187c1.296,0.474 2.745,-0.172 3.218,-1.468c0.474,-1.297 -0.203,-2.746 -1.5,-3.219c-0.324,-0.119 -0.644,-0.173 -0.968,-0.157zm-52.126,1c-0.778,0.039 -1.497,0.535 -1.781,1.313c-0.379,1.037 0.151,2.184 1.188,2.563c1.037,0.378 2.183,-0.151 2.562,-1.188s-0.15,-2.184 -1.187,-2.562c-0.26,-0.095 -0.522,-0.138 -0.782,-0.126zm34.438,0c-0.778,0.039 -1.497,0.535 -1.781,1.313c-0.379,1.037 0.15,2.184 1.187,2.563c1.038,0.378 2.184,-0.151 2.563,-1.188s-0.151,-2.184 -1.188,-2.562c-0.259,-0.095 -0.522,-0.138 -0.781,-0.126z" id="ip"/>
  <path d="m25.5,2l-2.25,1.4688l0,7.0312l-3.938,-2.1875l-2,1.1563l0,2.4692l5.844,3.312l0,4.625l-4.344,-2.313l0,4.782l-4.124,-2.375l0,-6.781l-2.25,-1.313l-1.876,1.25l0,4.531l-6.1558,-3.531l-2.4062,1.219l0,2.812l6.25,3.406l-3.9062,2.188l0,2.562l2.1562,1.094l5.781,-3.406l4.031,2.312l-4,2.5l4.126,2.344l0.093,0.094l-4.031,2.312l-5.7812,-3.406l-2.3126,1.25l0,2.563l4.0626,2.031l-6.4688,3.531l0,2.813l2.625,1.094l6.156,-3.469l0,4.469l1.875,1.25l2.219,-1.376l0,-6.656l4.031,-2.344l0,4.907l4.25,-2.719l0,4.625l-5.844,3.344l0,2.469l2,1.156l3.938,-2.219l0,7.063l2.25,1.437l2.281,-1.437l0,-7.063l3.938,2.219l2,-1l0,-2.625l-5.844,-3.344l0,-4.625l4.125,2.531l0,-4.625l4.344,2.438l0,6.687l2.031,1.157l2.094,-1.157l0,-4.406l5.843,3.313l2.532,-1.126l0,-2.781l-5.938,-3.531l3.719,-2.094l0,-2.406l-1.906,-1.344l-5.969,3.313l-4.219,-2.188l4.094,-2.375l-3.969,-2.468l4.094,-2.626l5.969,3.532l2,-1.125l0,-2.5l-3.875,-2.188l6.187,-3.5l0,-2.625l-2.219,-1.375l-6.343,3.438l0,-4.657l-2.157,-0.937l-2.031,0.937l0,7.282l-4.281,2.312l0,-5.031l-4.125,2.5l0,-4.625l6.063,-3.438l0,-2.187l-2.063,-1.375l-4.094,2.25l0,-7.0312l-2.281,-1.4688zm68.438,1.9375l-90,90l2.125,2.124l90,-90l-2.124,-2.125l-0.001,0.001zm-2.313,10.75c-0.939,0.03 -1.808,0.36 -2.469,0.906c-0.833,0.688 -1.344,1.706 -1.344,2.906l0,23.75c-1.668,1.254 -2.648,3.145 -2.656,5.219c-0.007,2.748 1.643,5.058 4,6.031c0.763,0.315 1.596,0.495 2.469,0.5c0.786,0.005 1.56,-0.121 2.25,-0.375c2.492,-0.909 4.205,-3.338 4.25,-6.031c0.034,-2.111 -0.945,-4.06 -2.656,-5.344l0,-23.906c0,-1.267 -0.618,-2.325 -1.594,-2.969c-0.621,-0.411 -1.412,-0.662 -2.219,-0.687l-0.031,0zm0.031,1.718c0.456,0.012 0.869,0.144 1.219,0.375c0.544,0.359 0.906,0.951 0.906,1.657l0,24.781c1.577,0.786 2.657,2.399 2.657,4.281c0,2.65 -2.132,4.812 -4.782,4.812s-4.812,-2.162 -4.812,-4.812c0,-1.882 1.079,-3.495 2.656,-4.281l0,-24.688c0,-0.668 0.286,-1.242 0.75,-1.625c0.372,-0.307 0.876,-0.486 1.406,-0.5zm-68,9.125l3.938,0l1.906,3.313l-1.812,3.125l-3.938,0l-2.125,-3.125l2.031,-3.313zm66.688,13.875l0,4.375c-1.546,0.535 -2.656,1.991 -2.656,3.719c0,2.18 1.788,3.938 3.968,3.938c2.181,0 3.938,-1.758 3.938,-3.938c0,-1.728 -1.11,-3.184 -2.656,-3.719l0,-4.375l-2.594,0zm-22.25,4.563c-8.046,0 -14.563,6.521 -14.563,14.562c0,0.182 0.024,0.35 0.031,0.531c-0.181,-0.012 -0.349,-0.062 -0.531,-0.062c-4.328,0 -7.843,3.515 -7.843,7.844c0,0.053 0.031,0.103 0.031,0.156c-0.62,-0.186 -1.26,-0.312 -1.938,-0.312c-3.713,0 -6.719,3.009 -6.719,6.718c0,3.713 3.006,5.125 6.719,5.125l43.188,0c6.364,-0.002 11.531,-5.166 11.531,-11.531c0,-6.364 -5.167,-11.5 -11.531,-11.5c-1.438,0 -2.799,0.271 -4.063,0.75c-1.098,-6.956 -7.051,-12.281 -14.312,-12.281zm-17.094,38.343l-5.562,15.25l1.187,0.438l5.719,-15.688l-1.344,0zm6.344,0l-5.563,15.25l1.188,0.438l5.719,-15.688l-1.344,0zm6.344,0l-5.563,15.25l1.187,0.438l5.719,-15.688l-1.343,0zm6.343,0l-5.562,15.25l1.187,0.438l5.719,-15.688l-1.344,0zm6.344,0l-5.563,15.25l1.188,0.438l5.719,-15.688l-1.344,0zm6.344,0l-5.563,15.25l1.188,0.438l5.718,-15.688l-1.343,0z" id="mix"/>
  <path d="m81.245,40.626c-2.34,0 -4.558,0.484 -6.615,1.264c-1.788,-11.321 -11.508,-20.013 -23.326,-20.013c-13.095,0 -23.702,10.608 -23.702,23.696c0,0.296 0.081,0.571 0.094,0.867c-0.296,-0.02 -0.578,-0.087 -0.874,-0.087c-7.045,0 -12.759,5.714 -12.759,12.759c0,0.087 0.027,0.168 0.027,0.255c-1.008,-0.302 -2.05,-0.518 -3.153,-0.518c-6.043,0 -10.937,4.901 -10.937,10.938c0,6.043 4.894,8.335 10.937,8.335l70.308,0c10.358,0 18.755,-8.389 18.755,-18.748s-8.396,-18.748 -18.755,-18.748z" id="ovc"/>
  <path d="m51.312,6.0312c-13.094,0 -23.718,10.6 -23.718,23.688c0,0.296 0.08,0.579 0.094,0.875c-0.296,-0.02 -0.58,-0.094 -0.876,-0.094c-7.044,0 -12.75,5.705 -12.75,12.75c0,0.087 0.032,0.194 0.032,0.281c-1.008,-0.302 -2.054,-0.531 -3.156,-0.531c-6.0435,0 -10.938,4.9 -10.938,10.938c0,6.042 4.8945,8.343 10.938,8.343l34.374,0l18.719,0l17.219,0c10.358,0 18.75,-8.391 18.75,-18.75s-8.391,-18.75 -18.75,-18.75c-2.34,0 -4.568,0.47 -6.625,1.25c-1.788,-11.321 -11.495,-20 -23.313,-20zm-27.843,62.438l-9.031,24.781l1.937,0.719l9.313,-25.5l-2.219,0zm10.343,0l-9.031,24.781l1.938,0.719l9.281,-25.5l-2.188,0zm10.313,0l-9.031,24.781l1.937,0.719l9.281,-25.5l-2.187,0zm10.344,0l-9.031,24.781l1.937,0.719l9.281,-25.5l-2.187,0zm10.312,0l-9.031,24.781l1.938,0.719l9.281,-25.5l-2.188,0zm10.313,0l-9,24.781l1.937,0.719l9.281,-25.5l-2.218,0z" id="ra"/>
  <path d="m30.219,2c-7.202,0 -13.031,5.8326 -13.031,13.031c0,0.163 0.024,0.306 0.031,0.469c-0.163,-0.011 -0.306,-0.031 -0.469,-0.031c-3.875,0 -7,3.125 -7,7l0,0.156c-0.5544,-0.166 -1.112,-0.281 -1.7188,-0.281c-3.3236,0 -6.0312,2.679 -6.0312,6c0,3.323 2.7076,4.594 6.0312,4.594l38.657,0c5.696,0 10.312,-4.615 10.312,-10.313c0,-5.697 -4.616,-10.313 -10.312,-10.313c-1.288,0 -2.525,0.259 -3.657,0.688c-0.983,-6.2265 -6.313,-11 -12.812,-11l-0.0002,0zm63.719,1.9375l-90,90l2.125,2.124l90,-90l-2.124,-2.125l-0.001,0.001zm-79.032,32.406l-4.9685,13.625l1.0625,0.406l5.125,-14.031l-1.219,0zm5.688,0l-4.969,13.625l1.063,0.406l5.124,-14.031l-1.218,0zm5.687,0l-4.969,13.625l1.063,0.406l5.094,-14.031l-1.188,0zm5.657,0l-4.938,13.625l1.062,0.406l5.094,-14.031l-1.218,0zm5.687,0l-4.969,13.625l1.063,0.406l5.125,-14.031l-1.219,0zm5.687,0l-4.968,13.625l1.062,0.406l5.094,-14.031l-1.188,0zm27.907,11.812c-7.202,0 -13.031,5.833 -13.031,13.032c0,0.162 0.024,0.305 0.031,0.468c-0.163,-0.011 -0.306,-0.062 -0.469,-0.062c-3.875,0 -7,3.156 -7,7.031l0,0.156c-0.554,-0.166 -1.112,-0.312 -1.719,-0.312c-3.323,0 -6.031,2.711 -6.031,6.031c0,3.324 2.708,4.594 6.031,4.594l38.657,0c5.696,0 10.312,-4.616 10.312,-10.313s-4.615,-10.312 -10.312,-10.312c-1.288,0 -2.525,0.258 -3.657,0.687c-0.983,-6.226 -6.313,-11 -12.812,-11zm-5.25,32.782c-0.535,0.026 -1.024,0.34 -1.219,0.874c-0.26,0.714 0.099,1.521 0.812,1.782c0.714,0.26 1.521,-0.1 1.782,-0.813c0.26,-0.713 -0.131,-1.521 -0.844,-1.781c-0.178,-0.065 -0.353,-0.071 -0.531,-0.062zm18.937,0c-0.535,0.026 -1.023,0.34 -1.218,0.874c-0.261,0.714 0.099,1.521 0.812,1.782c0.713,0.26 1.521,-0.1 1.781,-0.813c0.261,-0.713 -0.13,-1.521 -0.843,-1.781c-0.179,-0.065 -0.353,-0.071 -0.532,-0.062zm-28.656,0.531c-0.428,0.021 -0.844,0.291 -1,0.719c-0.208,0.57 0.086,1.197 0.656,1.406c0.571,0.208 1.198,-0.086 1.406,-0.656c0.209,-0.571 -0.054,-1.198 -0.624,-1.407c-0.143,-0.052 -0.295,-0.069 -0.438,-0.062zm18.938,0c-0.429,0.021 -0.844,0.291 -1,0.719c-0.209,0.57 0.085,1.197 0.656,1.406c0.57,0.208 1.198,-0.086 1.406,-0.656c0.208,-0.571 -0.086,-1.198 -0.656,-1.407c-0.143,-0.052 -0.264,-0.069 -0.406,-0.062zm-10.532,3.031c-0.535,0.027 -1.023,0.371 -1.218,0.906c-0.261,0.713 0.099,1.49 0.812,1.75c0.713,0.261 1.521,-0.099 1.781,-0.812c0.261,-0.713 -0.13,-1.49 -0.843,-1.75c-0.179,-0.065 -0.353,-0.103 -0.532,-0.094zm18.938,0c-0.535,0.027 -1.024,0.371 -1.219,0.906c-0.26,0.713 0.099,1.49 0.813,1.75c0.713,0.261 1.52,-0.099 1.781,-0.812c0.26,-0.713 -0.131,-1.49 -0.844,-1.75c-0.178,-0.065 -0.353,-0.103 -0.531,-0.094zm-28.656,0.562c-0.429,0.022 -0.813,0.291 -0.969,0.719c-0.209,0.571 0.086,1.198 0.656,1.407c0.571,0.208 1.198,-0.086 1.406,-0.657c0.209,-0.57 -0.086,-1.198 -0.656,-1.406c-0.143,-0.052 -0.295,-0.07 -0.437,-0.063zm18.937,0c-0.428,0.022 -0.844,0.291 -1,0.719c-0.208,0.571 0.086,1.198 0.656,1.407c0.571,0.208 1.229,-0.086 1.438,-0.657c0.208,-0.57 -0.086,-1.198 -0.657,-1.406c-0.142,-0.052 -0.294,-0.07 -0.437,-0.063zm-10.531,3.032c-0.535,0.027 -1.024,0.371 -1.219,0.906c-0.26,0.713 0.099,1.49 0.813,1.75c0.713,0.26 1.52,-0.099 1.781,-0.812c0.26,-0.714 -0.1,-1.521 -0.813,-1.782c-0.178,-0.065 -0.384,-0.071 -0.562,-0.062zm18.937,0c-0.535,0.027 -1.023,0.371 -1.219,0.906c-0.26,0.713 0.1,1.49 0.813,1.75s1.521,-0.099 1.781,-0.812c0.261,-0.714 -0.099,-1.521 -0.812,-1.782c-0.179,-0.065 -0.384,-0.071 -0.563,-0.062zm-28.656,0.531c-0.428,0.021 -0.812,0.291 -0.969,0.719c-0.208,0.57 0.086,1.229 0.656,1.437c0.571,0.209 1.198,-0.086 1.407,-0.656c0.208,-0.571 -0.086,-1.229 -0.657,-1.437c-0.142,-0.053 -0.294,-0.07 -0.437,-0.063zm18.937,0c-0.428,0.021 -0.812,0.291 -0.968,0.719c-0.209,0.57 0.086,1.229 0.656,1.437c0.571,0.209 1.198,-0.085 1.406,-0.656c0.209,-0.571 -0.086,-1.229 -0.656,-1.437c-0.143,-0.053 -0.295,-0.07 -0.438,-0.063zm-10.531,3.031c-0.535,0.027 -1.023,0.372 -1.219,0.906c-0.26,0.714 0.131,1.521 0.844,1.782c0.713,0.26 1.49,-0.131 1.75,-0.844c0.261,-0.713 -0.099,-1.49 -0.812,-1.75c-0.179,-0.065 -0.384,-0.103 -0.563,-0.094zm18.938,0c-0.535,0.027 -1.024,0.372 -1.219,0.906c-0.26,0.714 0.131,1.521 0.844,1.782c0.713,0.26 1.489,-0.131 1.75,-0.844c0.26,-0.713 -0.1,-1.49 -0.813,-1.75c-0.178,-0.065 -0.384,-0.103 -0.562,-0.094zm-28.657,0.563c-0.428,0.021 -0.812,0.291 -0.968,0.719c-0.209,0.57 0.086,1.197 0.656,1.406c0.571,0.208 1.198,-0.086 1.406,-0.656c0.209,-0.571 -0.086,-1.198 -0.656,-1.407c-0.143,-0.052 -0.295,-0.069 -0.438,-0.062zm18.938,0c-0.428,0.021 -0.812,0.291 -0.969,0.719c-0.208,0.57 0.086,1.197 0.657,1.406c0.57,0.208 1.197,-0.086 1.406,-0.656c0.208,-0.571 -0.086,-1.198 -0.656,-1.407c-0.143,-0.052 -0.295,-0.069 -0.438,-0.062zm-13.656,1.219c-0.76,0 -1.375,0.615 -1.375,1.374c0,0.76 0.615,1.376 1.375,1.376c0.759,0 1.375,-0.616 1.375,-1.376c0,-0.759 -0.616,-1.374 -1.375,-1.374zm18.937,0c-0.759,0 -1.375,0.615 -1.375,1.374c0,0.76 0.616,1.376 1.375,1.376c0.76,0 1.375,-0.616 1.375,-1.376c0,-0.759 -0.615,-1.374 -1.375,-1.374zm-28.687,0.562c-0.608,0 -1.094,0.486 -1.094,1.094c0,0.607 0.486,1.094 1.094,1.094c0.607,0 1.094,-0.487 1.094,-1.094c0,-0.608 -0.487,-1.094 -1.094,-1.094zm18.937,0c-0.607,0 -1.093,0.486 -1.093,1.094c0,0.607 0.486,1.094 1.093,1.094c0.608,0 1.094,-0.487 1.094,-1.094c0,-0.608 -0.486,-1.094 -1.094,-1.094zm-6.031,1.25c-0.535,0.027 -1.055,0.371 -1.25,0.906c-0.26,0.713 0.131,1.49 0.844,1.75c0.713,0.261 1.489,-0.099 1.75,-0.812c0.26,-0.713 -0.1,-1.49 -0.813,-1.75c-0.178,-0.065 -0.353,-0.103 -0.531,-0.094zm18.938,0c-0.536,0.027 -1.055,0.371 -1.25,0.906c-0.261,0.713 0.13,1.49 0.843,1.75c0.713,0.261 1.49,-0.099 1.75,-0.812c0.261,-0.713 -0.099,-1.49 -0.812,-1.75c-0.179,-0.065 -0.353,-0.103 -0.531,-0.094zm-28.688,0.562c-0.428,0.022 -0.812,0.291 -0.969,0.719c-0.208,0.571 0.086,1.198 0.657,1.407c0.57,0.208 1.197,-0.086 1.406,-0.657c0.208,-0.57 -0.086,-1.198 -0.656,-1.406c-0.143,-0.052 -0.295,-0.07 -0.438,-0.063zm18.938,0c-0.429,0.022 -0.813,0.291 -0.969,0.719c-0.209,0.571 0.086,1.198 0.656,1.407c0.571,0.208 1.198,-0.086 1.406,-0.657c0.209,-0.57 -0.086,-1.198 -0.656,-1.406c-0.143,-0.052 -0.295,-0.07 -0.437,-0.063z" id="raip"/>
  <path d="m25.5,2l-2.25,1.4688l0,7.0312l-3.938,-2.1875l-2,1.1563l0,2.4692l5.844,3.312l0,4.625l-4.344,-2.313l0,4.782l-4.124,-2.375l0,-6.781l-2.25,-1.313l-1.876,1.25l0,4.531l-6.1558,-3.531l-2.4062,1.219l0,2.812l6.25,3.406l-3.9062,2.188l0,2.562l2.1562,1.094l5.781,-3.406l4.031,2.312l-4,2.5l4.126,2.344l0.093,0.094l-4.031,2.312l-5.7812,-3.406l-2.3126,1.25l0,2.563l4.0626,2.031l-6.4688,3.531l0,2.813l2.625,1.094l6.156,-3.469l0,4.469l1.875,1.25l2.219,-1.376l0,-6.656l4.031,-2.344l0,4.907l4.25,-2.719l0,4.625l-5.844,3.344l0,2.469l2,1.156l3.938,-2.219l0,7.063l2.25,1.437l2.281,-1.437l0,-7.063l3.938,2.219l2,-1l0,-2.625l-5.844,-3.344l0,-4.625l4.125,2.531l0,-4.625l4.344,2.438l0,6.687l2.031,1.157l2.094,-1.157l0,-4.406l5.843,3.313l2.532,-1.126l0,-2.781l-5.938,-3.531l3.719,-2.094l0,-2.406l-1.906,-1.344l-5.969,3.313l-4.219,-2.188l4.094,-2.375l-3.969,-2.468l4.094,-2.626l5.969,3.532l2,-1.125l0,-2.5l-3.875,-2.188l6.187,-3.5l0,-2.625l-2.219,-1.375l-6.343,3.438l0,-4.657l-2.157,-0.937l-2.031,0.937l0,7.282l-4.281,2.312l0,-5.031l-4.125,2.5l0,-4.625l6.063,-3.438l0,-2.187l-2.063,-1.375l-4.094,2.25l0,-7.0312l-2.281,-1.4688zm68.438,1.9375l-90,90l2.125,2.124l90,-90l-2.124,-2.125l-0.001,0.001zm-70.282,21.594l3.938,0l1.906,3.313l-1.812,3.125l-3.938,0l-2.125,-3.125l2.031,-3.313zm44.438,16.438c-8.046,0 -14.563,6.521 -14.563,14.562c0,0.182 0.024,0.35 0.031,0.531c-0.181,-0.012 -0.349,-0.062 -0.531,-0.062c-4.328,0 -7.843,3.515 -7.843,7.844c0,0.053 0.031,0.103 0.031,0.156c-0.62,-0.186 -1.26,-0.312 -1.938,-0.312c-3.713,0 -6.719,3.009 -6.719,6.718c0,3.713 3.006,5.125 6.719,5.125l43.188,0c6.364,-0.002 11.531,-5.166 11.531,-11.531c0,-6.364 -5.167,-11.5 -11.531,-11.5c-1.438,0 -2.799,0.271 -4.063,0.75c-1.098,-6.956 -7.051,-12.281 -14.312,-12.281zm-17.094,38.343l-5.562,15.25l1.187,0.438l5.719,-15.688l-1.344,0zm6.344,0l-5.563,15.25l1.188,0.438l5.719,-15.688l-1.344,0zm6.344,0l-5.563,15.25l1.187,0.438l5.719,-15.688l-1.343,0zm6.343,0l-5.562,15.25l1.187,0.438l5.719,-15.688l-1.344,0zm6.344,0l-5.563,15.25l1.188,0.438l5.719,-15.688l-1.344,0zm6.344,0l-5.563,15.25l1.188,0.438l5.718,-15.688l-1.343,0z" id="rasn"/>
  <path d="m33.469,15l0,11.938l3.125,0l0,-11.938l-3.125,0zm-13.813,3.406l-2.656,1.656l6.312,10.126l2.657,-1.657l-6.313,-10.125zm30.938,0.313l-5.782,10.437l2.75,1.532l5.782,-10.438l-2.75,-1.531zm-44.532,11.375l-1.5313,2.75l10.407,5.781l1.5,-2.75l-10.376,-5.781l0.0003,0zm28.968,0.468c-10.675,0 -19.312,8.695 -19.312,19.407c0,9.054 6.173,16.619 14.531,18.75c-3.104,1.593 -5.25,4.819 -5.25,8.531c0,2.64 1.214,4.853 3.062,6.094c1.508,1.012 3.31,1.457 5.219,1.594l0,0.062l1.313,0l1.812,0l22.75,0l13.375,0l12.281,0c8.363,0 15.188,-6.823 15.188,-15.188c0,-8.364 -6.824,-15.156 -15.188,-15.156c-1.204,0 -2.335,0.198 -3.437,0.469c-2.148,-7.959 -9.313,-13.875 -17.937,-13.875c-3.692,0 -7.108,1.081 -10,2.938c-2.449,-7.888 -9.748,-13.626 -18.407,-13.626zm29.219,0.376l-10.281,5.968l1.562,2.719l10.313,-5.969l-1.594,-2.718zm-0.812,13.874c7.565,0 13.762,5.572 14.906,12.813l0.312,2.156l2.063,-0.781c1.3,-0.493 2.668,-0.781 4.093,-0.781c6.436,0 11.626,5.159 11.626,11.593c0,6.435 -5.191,11.626 -11.626,11.626l-12.281,0l-13.375,0l-24.562,0c-1.933,0 -3.553,-0.406 -4.532,-1.063c-0.978,-0.657 -1.5,-1.449 -1.5,-3.125c0,-3.347 2.681,-6.031 6.032,-6.031c0.554,0 1.13,0.126 1.75,0.312l2.281,0.688l0,-2.407l0,-0.187c0,-4.067 3.246,-7.313 7.313,-7.313c-0.059,0 0.097,0.036 0.5,0.063l2,0.125l-0.094,-2c-0.022,-0.488 -0.063,-0.646 -0.063,-0.531c0,-8.384 6.767,-15.157 15.157,-15.157zm-63.438,2.688l0,3.125l11.906,0l0,-3.125l-11.906,0zm13.562,11.156l-10.062,6.344l1.625,2.656l10.094,-6.344l-1.657,-2.656zm8.438,10.282l-5.75,10.468l2.719,1.5l5.781,-10.437l-2.75,-1.531z" id="sct"/>
  <path d="m33.125,21.844c-2.855,0 -5.477,0.915 -7.625,2.468l15.25,0c-2.137,-1.553 -4.777,-2.468 -7.625,-2.468zm-10.063,4.75c-0.625,0.757 -1.182,1.582 -1.624,2.468l23.312,0c-0.444,-0.889 -0.969,-1.709 -1.594,-2.468l-20.094,0zm-2.5,4.75c-0.225,0.799 -0.368,1.615 -0.437,2.468l35.094,0c-1.615,-1.044 -3.527,-1.656 -5.594,-1.656c-1.289,0 -2.523,0.258 -3.656,0.688c-0.083,-0.522 -0.202,-1.001 -0.344,-1.5l-25.063,0zm-4.093,4.75c-1.125,0.571 -2.075,1.411 -2.75,2.468l45.469,0c-0.368,-0.895 -0.846,-1.72 -1.438,-2.468l-41.281,0zm-3.688,4.75c-0.106,0.484 -0.156,0.984 -0.156,1.5l0,0.156c-0.555,-0.166 -1.112,-0.312 -1.719,-0.312c-1.3016,0 -2.5151,0.423 -3.4998,1.124l52.532,0c0.021,-0.274 0.031,-0.532 0.031,-0.812c0,-0.565 -0.069,-1.116 -0.157,-1.656l-47.031,0l-0.0002,0zm-7.3122,4.75c-0.3667,0.752 -0.5714,1.581 -0.5938,2.468l53.437,0c0.492,-0.762 0.879,-1.585 1.157,-2.468l-54,0l-0.0002,0zm-0.125,4.75c0.9142,1.759 3.0657,2.468 5.5622,2.468l38.719,0c2.563,0 4.913,-0.925 6.719,-2.468l-51,0l-0.0002,0zm67.718,2.344c-2.347,0 -4.514,0.754 -6.281,2.031l12.563,0c-1.757,-1.277 -3.939,-2.031 -6.282,-2.031zm-8.281,3.906c-0.514,0.623 -0.948,1.302 -1.312,2.031l19.156,0c-0.365,-0.731 -0.798,-1.407 -1.313,-2.031l-16.531,0zm-2.031,3.906c-0.186,0.657 -0.318,1.329 -0.375,2.031l28.875,0c-1.328,-0.859 -2.925,-1.343 -4.625,-1.343c-1.06,0 -2.068,0.209 -3,0.562c-0.068,-0.429 -0.165,-0.839 -0.281,-1.25l-20.594,0zm-3.375,3.906c-0.924,0.47 -1.695,1.162 -2.25,2.032l37.375,0c-0.303,-0.737 -0.701,-1.416 -1.188,-2.032l-33.937,0zm-3.031,3.906c-0.087,0.399 -0.125,0.827 -0.125,1.25l0,0.126c-0.457,-0.137 -0.939,-0.25 -1.438,-0.25c-1.07,0 -2.065,0.329 -2.875,0.906l43.188,0c0.017,-0.226 0.031,-0.426 0.031,-0.656c0,-0.465 -0.053,-0.932 -0.125,-1.376l-38.656,0zm-6,3.907c-0.302,0.618 -0.482,1.301 -0.5,2.031l43.937,0c0.405,-0.627 0.709,-1.305 0.938,-2.031l-44.375,0zm-0.125,3.906c0.752,1.447 2.509,2.031 4.562,2.031l31.844,0c2.107,0 4.047,-0.762 5.531,-2.031l-41.937,0z" id="sctfg"/>
  <path d="m73.906,0l0,8.5312l2.219,0l0,-8.5312l-2.219,0zm-9.875,2.4375l-1.875,1.1875l4.5,7.219l1.906,-1.1878l-4.531,-7.2187zm22.125,0.2187l-4.125,7.4378l1.938,1.094l4.125,-7.438l-1.938,-1.0938zm-31.844,8.1248l-1.062,1.969l7.406,4.125l1.094,-1.969l-7.438,-4.125zm20.719,0.344c-7.625,0 -13.812,6.193 -13.812,13.844s6.186,13.845 13.812,13.843c7.619,0 13.781,-6.192 13.781,-13.843c0,-7.65 -6.162,-13.844 -13.781,-13.844zm20.875,0.25l-7.375,4.281l1.125,1.938l7.375,-4.25l-1.125,-1.969zm-45.906,11.844l0,2.25l8.5,0l0,-2.25l-8.5,0zm41.5,0.125l0,2.25l8.5,0l0,-2.25l-8.5,0zm-31.812,7.844l-7.188,4.531l1.156,1.875l7.219,-4.5l-1.187,-1.906zm30.25,0.468l-1.063,1.969l7.406,4.156l1.094,-1.969l-7.437,-4.156zm-54.032,3.344c-9.166,0 -16.594,7.432 -16.594,16.594c0,0.207 0.054,0.386 0.063,0.594c-0.207,-0.014 -0.387,-0.032 -0.594,-0.032c-4.931,0 -8.9372,3.975 -8.9372,8.906c0,0.061 0.0312,0.127 0.0312,0.188c-0.7072,-0.211 -1.4466,-0.375 -2.2188,-0.375c-4.23,0 -7.6562,3.43 -7.6562,7.656c0,4.23 3.4262,5.844 7.6562,5.844l49.219,0c7.251,-0.001 13.125,-5.874 13.125,-13.125c0,-7.252 -5.874,-13.125 -13.125,-13.125c-1.638,0 -3.185,0.36 -4.625,0.906c-1.252,-7.924 -8.071,-14.031 -16.344,-14.031l-0.0002,0zm48.375,3.469l-1.906,1.125l4.25,7.375l1.906,-1.094l-4.25,-7.406zm-18.562,0.062l-4.125,7.469l1.968,1.094l4.126,-7.469l-1.969,-1.094zm8.062,2.938l0,8.531l2.219,0l0,-8.531l-2.219,0zm-41.062,34.593l-8.375,14.376l5.968,0l-4.781,9.562l14.375,-14.375l-7.187,0l5.969,-9.563l-5.969,0zm-16.281,2.657l-6.313,17.343l1.344,0.5l6.5,-17.843l-1.531,0zm7.218,0l-6.312,17.343l1.344,0.5l6.5,-17.843l-1.532,0zm21.688,0l-6.313,17.343l1.344,0.5l6.5,-17.843l-1.531,0zm7.218,0l-6.312,17.343l1.375,0.5l6.5,-17.843l-1.563,0z" id="scttsra"/>
  <path d="m51.188,6.8125c-12.627,0 -22.762,10.028 -23.5,22.468c-6.17,0.593 -10.961,5.238 -12.063,11.25c-0.362,-0.038 -0.648,-0.156 -1.031,-0.156c-6.7074,0 -12.219,5.485 -12.219,12.187c0,3.353 1.5923,6.174 3.9375,7.75c2.3476,1.577 5.2555,2.094 8.2815,2.094l31.156,0l16.969,0l15.625,0c10.619,0 19.281,-8.66 19.281,-19.281s-8.66,-19.281 -19.281,-19.281c-1.612,0 -3.065,0.434 -4.532,0.812c-2.683,-10.171 -11.627,-17.844 -22.624,-17.844l0,0.001zm0,4.5315c9.607,0 17.453,7.119 18.906,16.312l0.437,2.75l2.625,-1.062c1.65,-0.626 3.378,-0.938 5.188,-0.938c8.171,0 14.75,6.55 14.75,14.719c0,8.171 -6.579,14.719 -14.75,14.719l-15.625,0l-16.969,0l-31.156,0c-2.455,0 -4.507,-0.508 -5.7502,-1.344c-1.2429,-0.833 -1.9376,-1.809 -1.9376,-3.938c0,-4.249 3.4328,-7.656 7.6878,-7.656c0.705,0 1.37,0.14 2.156,0.375l2.969,0.907l0,-3.063c0,-0.14 -0.056,-0.14 -0.063,-0.219c0,-0.128 -0.012,-0.127 0,-0.156c-0.002,-0.012 0.002,-0.058 0,-0.062c0.119,-5.058 4.196,-9.094 9.282,-9.094c-0.074,0 0.173,0.058 0.687,0.094l2.531,0.124l-0.094,-2.531c-0.028,-0.621 -0.156,-0.801 -0.156,-0.656c0,-10.645 8.629,-19.281 19.282,-19.281zm-27.719,57.125l-9.031,24.781l1.937,0.719l9.313,-25.5l-2.219,0zm17.219,0l-9.032,24.781l1.938,0.719l9.281,-25.5l-2.187,0zm17.218,0l-9.031,24.781l1.937,0.719l9.282,-25.5l-2.188,0zm17.188,0l-9,24.781l1.937,0.719l9.281,-25.5l-2.218,0z" id="shra"/>
  <path d="m47.812,0l0,17.062l4.469,0l0,-17.062l-4.469,0zm-19.718,4.875l-3.782,2.375l9,14.438l3.782,-2.344l-9,-14.469zm44.187,0.4375l-8.25,14.906l3.938,2.187l8.219,-14.906l-3.907,-2.1875l0,0.0005zm-63.625,16.25l-2.1874,3.938l14.843,8.25l2.188,-3.906l-14.844,-8.282l0.0004,0zm41.406,0.657c-15.25,0 -27.624,12.417 -27.624,27.719c0,15.3 12.374,27.721 27.624,27.718c15.24,0 27.594,-12.416 27.594,-27.718s-12.356,-27.719 -27.594,-27.719zm41.75,0.531l-14.718,8.531l2.218,3.907l14.719,-8.532l-2.219,-3.906zm-91.812,23.688l0,4.468l17,0l0,-4.468l-17,0zm83,0.25l0,4.5l17,0l0,-4.5l-17,0zm-63.594,15.687l-14.406,9.031l2.3438,3.813l14.406,-9.063l-2.344,-3.781l0.0002,0zm60.5,0.969l-2.187,3.906l14.875,8.281l2.187,-3.937l-14.875,-8.25zm-11.312,13.625l-3.875,2.219l8.5,14.781l3.875,-2.25l-8.5,-14.75zm-37.156,0.093l-8.25,14.938l3.906,2.156l8.25,-14.937l-3.906,-2.157zm16.093,5.876l0,17.062l4.469,0l0,-17.062l-4.469,0z" id="skc"/>
  <path d="m42.732,50.287l3.955,5.841l7.365,0l3.398,-5.841l-3.58,-6.22l-7.379,0l-3.759,6.22zm3.033,46.974l0,-13.207l-7.379,4.15l-3.759,-2.152l0,-4.653l10.943,-6.22l0,-8.68l-7.939,5.102l0,-9.196l-7.589,4.374l0,12.468l-4.151,2.572l-3.508,-2.321l0,-8.356l-11.518,6.498l-4.919,-2.07l0,-5.27l12.089,-6.609l-7.561,-3.801l0,-4.822l4.291,-2.349l10.845,6.386l7.533,-4.346l-0.182,-0.139l-7.701,-4.417l7.477,-4.64l-7.505,-4.346l-10.844,6.372l-4.068,-2.026l0,-4.808l7.339,-4.123l-11.713,-6.36l0,-5.269l4.5,-2.319l11.544,6.666l0,-8.497l3.48,-2.348l4.264,2.46l-0.028,12.718l7.756,4.43l-0.027,-8.986l8.134,4.375l0,-8.68l-10.943,-6.233l0,-4.612l3.759,-2.18l7.379,4.151l0,-13.18l4.222,-2.768l4.261,2.768l0,13.18l7.646,-4.235l3.845,2.544l0,4.151l-11.322,6.414l0,8.68l7.744,-4.724l0,9.448l7.979,-4.348l0,-13.598l3.844,-1.789l4.038,1.789l0,8.694l11.879,-6.416l4.153,2.53l0,4.919l-11.601,6.597l7.254,4.066l0,4.697l-3.76,2.083l-11.138,-6.583l-7.702,4.892l7.449,4.642l-7.673,4.416l7.926,4.15l11.138,-6.221l3.578,2.53l0,4.487l-6.988,3.927l11.126,6.61l0,5.188l-4.71,2.152l-10.931,-6.221l0,8.232l-3.927,2.194l-3.843,-2.194l0,-12.496l-8.092,-4.611l0,8.68l-7.744,-4.725l0,8.68l10.944,6.22l0,4.92l-3.776,1.886l-7.337,-4.15l0,13.207l-4.26,2.738l-4.221,-2.739z" id="sn"/>
  <path d="m51.312,3.5625c-13.094,0 -23.718,10.63 -23.718,23.718c0,0.296 0.08,0.548 0.094,0.844c-0.296,-0.02 -0.58,-0.063 -0.876,-0.063c-7.044,0 -12.75,5.706 -12.75,12.75c0,0.088 0.032,0.164 0.032,0.25c-1.008,-0.302 -2.054,-0.5 -3.156,-0.5c-6.0435,0 -10.938,4.901 -10.938,10.938c0,6.043 4.8945,8.312 10.938,8.312l70.312,0c10.358,0 18.75,-8.39 18.75,-18.75c0,-10.358 -8.391,-18.75 -18.75,-18.75c-2.34,0 -4.568,0.502 -6.625,1.282c-1.788,-11.321 -11.495,-20.032 -23.313,-20.032l0,0.001zm-4.593,58.656l-11.969,20.531l8.562,0l-6.843,13.688l20.531,-20.532l-10.281,0l8.562,-13.687l-8.562,0zm-23.25,3.781l-9.031,24.812l1.937,0.719l9.313,-25.531l-2.219,0zm10.343,0l-9.031,24.812l1.938,0.719l9.281,-25.531l-2.188,0zm30.969,0l-9.031,24.812l1.938,0.719l9.281,-25.531l-2.188,0zm10.313,0l-9,24.812l1.937,0.719l9.281,-25.531l-2.218,0z" id="tsra"/>
  <path d="m62.781,0.00628c-1.621,0.18889 -7.737,6.4392 -19.093,25.311c3.0187,0.032 5.663,1.6919 7.0938,4.1247c11.41,-20.557 13.346,-28.772 12.25,-29.404c-0.0685,-0.03944 -0.14194,-0.04384 -0.25,-0.03125l-0.0008,-0.00045zm-19.187,29.467c-2.2942,0 -4.1562,1.8647 -4.1562,4.156s1.862,4.156 4.1562,4.156s4.1562,-1.8647 4.1562,-4.156s-1.862,-4.156 -4.1562,-4.156zm-7.2188,0.0625c-23.477,0.41497 -31.531,2.8316 -31.531,4.0935c0,1.2609 8.0532,3.6795 31.531,4.0935c-0.68785,-1.2069 -1.0938,-2.6066 -1.0938,-4.0935c0,-1.4859 0.40594,-2.8856 1.0938,-4.0935zm14.406,8.2495c-1.4238,2.4358 -4.0448,4.0887 -7.0625,4.1247c12.105,20.107 18.216,25.878 19.312,25.248c1.0943,-0.63196 -0.84705,-8.8283 -12.25,-29.373l0.0005,0.0003zm-50.468,2.062c-0.06322,-0.0073 -0.11601,0.0082 -0.15625,0.03125c-0.6438,0.373 0.50625,5.156 7.0312,16.999c0.9162,-1.38 2.4383,-2.304 4.1875,-2.438c-6.5661,-10.832 -10.114,-14.483 -11.062,-14.592l-0.00045,-0.00025zm65.062,0c-0.06321,-0.0073 -0.11601,0.0082 -0.15625,0.03125c-0.643,0.37298 0.50625,5.1567 7.0312,16.999c0.9172,-1.3799 2.4393,-2.3034 4.1875,-2.4373c-6.566,-10.833 -10.113,-14.484 -11.061,-14.593l-0.00145,0.00005zm-25.938,3.0311l0,57.121l8.3125,0l0,-43.935c-2.379,-3.518 -5.134,-7.856 -8.31,-13.186l-0.0025,0zm-27.655,14.28c-1.5295,0 -2.75,1.2223 -2.75,2.7498s1.2205,2.7811 2.75,2.7811s2.7812,-1.2536 2.7812,-2.7811s-1.2518,-2.7498 -2.7812,-2.7498zm65.094,0c-1.5295,0 -2.7812,1.2223 -2.7812,2.7498s1.2518,2.7811 2.7812,2.7811c1.5295,0 2.7812,-1.2536 2.7812,-2.7811s-1.2518,-2.7498 -2.7812,-2.7498zm-60.125,0.344c0.35844,0.73095 0.59375,1.5372 0.59375,2.4061c0,0.87594 -0.2293,1.7014 -0.59375,2.4373c13.471,-0.28298 18.156,-1.6671 18.156,-2.4061c0,-0.74195 -4.6902,-2.1544 -18.156,-2.4373zm65.094,0c0.35744,0.73095 0.5625,1.5372 0.5625,2.4061c0,0.87594 -0.20306,1.7014 -0.5625,2.4373c13.471,-0.283 18.156,-1.667 18.156,-2.406c0,-0.742 -4.69,-2.154 -18.156,-2.437l0,-0.0004zm-74.656,5.468c-6.523,11.842 -7.675,16.627 -7.0312,16.999c0.644,0.371 4.2152,-3.01 11.219,-14.562c-1.7502,-0.135 -3.2694,-1.056 -4.1875,-2.437l-0.0003,0zm65.062,0c-6.524,11.842 -7.675,16.623 -7.031,16.999c0.643,0.37 4.216,-3.007 11.219,-14.562c-1.752,-0.135 -3.27,-1.056 -4.188,-2.437zm-57.688,2.5311c-2.15,3.6138 -3.9764,6.4613 -5.5312,8.7182l-0.0308,25.78l5.5312,0l0.03125,-34.498l-0.00045,-0.0002zm65.094,0c-2.1496,3.6137 -4.0086,6.4613 -5.5625,8.7182l0,25.78l5.5312,0l0.03125,-34.498l0.00005,-0.0002z" id="wind"/>
 </defs>
 <g>
  <title>Layer 1</title>
  <g id="svg_1" transform="scale(3.25) translate(5.055 20.166)">
   <use id="svg_2" xlink:href="#ICON_ONE"/>
  </g>
  <g id="svg_3" transform="scale(1.2) translate(34.167 399.725)">
   <use id="svg_4" xlink:href="#ICON_TWO"/>
  </g>
  <g id="svg_5" transform="scale(1.2) translate(200 399.725)">
   <use id="svg_6" xlink:href="#ICON_THREE"/>
  </g>
  <g id="svg_7" transform="scale(1.2) translate(365.833 399.725)">
   <use id="svg_8" xlink:href="#ICON_FOUR"/>
  </g>
  <g id="svg_9" font-family="DejaVu Sans">
   <text id="svg_11" text-anchor="middle" x="446.26932" y="121.70689" font-size="35px">High:</text>
   <text id="svg_12" text-anchor="end" x="526.72095" y="209.20592" font-size="100px">HIGH_ONE</text>
   <text id="svg_13" text-anchor="middle" x="548.30981" y="182.48717" font-size="64px">°F</text>
   <text id="svg_14" text-anchor="middle" x="440.80057" y="275.13895" font-size="35px">Low:</text>
   <text id="svg_15" text-anchor="end" x="526.23267" y="359.8533" font-size="100px">LOW_ONE</text>
   <text id="svg_16" text-anchor="middle" x="548.30981" y="333.13455" font-size="64px">°F</text>
   <text id="svg_18" text-anchor="middle" x="74.95834" y="635.68347" font-size="20px">High:</text>
   <text id="svg_19" text-anchor="end" x="116.05887" y="686.3255" font-size="58px">HIGH_TWO</text>
   <text id="svg_20" text-anchor="middle" x="134.01662" y="670.86145" font-size="37px">°F</text>
   <text id="svg_21" text-anchor="middle" x="71.9062" y="724.48578" font-size="20px">Low:</text>
   <text id="svg_22" text-anchor="end" x="116.00232" y="773.51617" font-size="58px">LOW_TWO</text>
   <text id="svg_23" text-anchor="middle" x="134.01663" y="758.05206" font-size="37px">°F</text>
   <text id="svg_24" text-anchor="middle" x="300.3125" y="466.15359" font-size="32px">DAY_THREE:</text>
   <text id="svg_25" text-anchor="middle" x="273.95834" y="635.68347" font-size="20px">High:</text>
   <text id="svg_26" text-anchor="end" x="314.15454" y="686.3255" font-size="58px">HIGH_THREE</text>
   <text id="svg_27" text-anchor="middle" x="333.01663" y="670.86145" font-size="37px">°F</text>
   <text id="svg_28" text-anchor="middle" x="270.90619" y="724.48578" font-size="20px">Low:</text>
   <text id="svg_29" text-anchor="end" x="314.08383" y="773.51617" font-size="58px">LOW_THREE</text>
   <text id="svg_30" text-anchor="middle" x="333.0166" y="758.05206" font-size="37px">°F</text>
   <text id="svg_31" text-anchor="middle" x="499.82813" y="466.15359" font-size="32px">DAY_FOUR:</text>
   <text id="svg_32" text-anchor="middle" x="472.95834" y="635.68347" font-size="20px">High:</text>
   <text id="svg_33" text-anchor="end" x="513.30994" y="686.3255" font-size="58px">HIGH_FOUR</text>
   <text id="svg_34" text-anchor="middle" x="532.0166" y="670.86145" font-size="37px">°F</text>
   <text id="svg_35" text-anchor="middle" x="469.90619" y="724.48578" font-size="20px">Low:</text>
   <text id="svg_36" text-anchor="end" x="513.73383" y="773.51617" font-size="58px">LOW_FOUR</text>
   <text id="svg_37" text-anchor="middle" x="532.0166" y="758.05206" font-size="37px">°F</text>
   <text xml:space="preserve" text-anchor="start" font-size="32px" id="svg_45" y="43" x="13">DAY_ONE:</text>
   <text xml:space="preserve" text-anchor="start" font-size="32px" id="svg_47" y="468" x="13">DAY_TWO:</text>
  </g>
  <path id="svg_38" d="m199,447.35l0,321.5l3,0l0,-321.5l-3,0z"/>
  <path id="svg_39" d="m398,447.35l0,321.5l3,0l0,-321.5l-3,0z"/>
  <text xml:space="preserve" text-anchor="start" font-family="Noto Sans JP" font-size="24" id="svg_41" y="31" x="426" stroke-width="0" stroke="#000" fill="#000000">LAST_UPDATE</text>
 </g>
</svg>